HIERARCHY
ROOT Hips
{
  OFFSET 0.770019 87.5769 1.10208
  CHANNELS 6 Xposition Yposition Zposition Zrotation Xrotation Yrotation
  JOINT Spine
  {
    OFFSET 0 9.9235 -1.2273
    CHANNELS 6 Xposition Yposition Zposition Zrotation Xrotation Yrotation
    JOINT Spine1
    {
      OFFSET -0.0001 11.6454 -1.4223
      CHANNELS 6 Xposition Yposition Zposition Zrotation Xrotation Yrotation
      JOINT Spine2
      {
        OFFSET 0.0001 13.3602 -1.6265
        CHANNELS 6 Xposition Yposition Zposition Zrotation Xrotation Yrotation
        JOINT Neck
        {
          OFFSET 0 15.0325 0.7929
          CHANNELS 6 Xposition Yposition Zposition Zrotation Xrotation Yrotation
          JOINT Head
          {
            OFFSET 0 10.3218 3.1424
            CHANNELS 6 Xposition Yposition Zposition Zrotation Xrotation Yrotation
            JOINT HeadTop_End
            {
              OFFSET 0.0002 18.4747 6.6364
              CHANNELS 6 Xposition Yposition Zposition Zrotation Xrotation Yrotation
              End Site
              {
                OFFSET 0 0 0
              }
            }
            JOINT LeftEye
            {
              OFFSET 2.9479 7.6817 9.1207
              CHANNELS 6 Xposition Yposition Zposition Zrotation Xrotation Yrotation
              End Site
              {
                OFFSET 0 0 0
              }
            }
            JOINT RightEye
            {
              OFFSET -2.9445 7.6817 9.1205
              CHANNELS 6 Xposition Yposition Zposition Zrotation Xrotation Yrotation
              End Site
              {
                OFFSET 0 0 0
              }
            }
          }
        }
        JOINT LeftShoulder
        {
          OFFSET 6.1058 9.1104 0.7056
          CHANNELS 6 Xposition Yposition Zposition Zrotation Xrotation Yrotation
          JOINT LeftArm
          {
            OFFSET 12.655 -0.2659 -2.6009
            CHANNELS 6 Xposition Yposition Zposition Zrotation Xrotation Yrotation
            JOINT LeftForeArm
            {
              OFFSET 27.4047 0 0
              CHANNELS 6 Xposition Yposition Zposition Zrotation Xrotation Yrotation
              JOINT LeftHand
              {
                OFFSET 27.6145 0 0
                CHANNELS 6 Xposition Yposition Zposition Zrotation Xrotation Yrotation
                JOINT LeftHandMiddle1
                {
                  OFFSET 12.7755 0 0
                  CHANNELS 6 Xposition Yposition Zposition Zrotation Xrotation Yrotation
                  JOINT LeftHandMiddle2
                  {
                    OFFSET 3.614 0 0
                    CHANNELS 6 Xposition Yposition Zposition Zrotation Xrotation Yrotation
                    JOINT LeftHandMiddle3
                    {
                      OFFSET 3.4598 0 0
                      CHANNELS 6 Xposition Yposition Zposition Zrotation Xrotation Yrotation
                      End Site
                      {
                        OFFSET 3.6802 0 0
                      }
                    }
                  }
                }
                JOINT LeftHandThumb1
                {
                  OFFSET 3.7888 -2.167 3.0031
                  CHANNELS 6 Xposition Yposition Zposition Zrotation Xrotation Yrotation
                  JOINT LeftHandThumb2
                  {
                    OFFSET 3.6754 -2.122 2.122
                    CHANNELS 6 Xposition Yposition Zposition Zrotation Xrotation Yrotation
                    JOINT LeftHandThumb3
                    {
                      OFFSET 3.3944 -1.9597 1.9598
                      CHANNELS 6 Xposition Yposition Zposition Zrotation Xrotation Yrotation
                      End Site
                      {
                        OFFSET 2.6794 -1.5469 1.5469
                      }
                    }
                  }
                }
                JOINT LeftHandIndex1
                {
                  OFFSET 12.2666 -0.2317 2.8221
                  CHANNELS 6 Xposition Yposition Zposition Zrotation Xrotation Yrotation
                  JOINT LeftHandIndex2
                  {
                    OFFSET 3.892 0 0
                    CHANNELS 6 Xposition Yposition Zposition Zrotation Xrotation Yrotation
                    JOINT LeftHandIndex3
                    {
                      OFFSET 3.4152 0 0
                      CHANNELS 6 Xposition Yposition Zposition Zrotation Xrotation Yrotation
                      End Site
                      {
                        OFFSET 3.078 0 0
                      }
                    }
                  }
                }
                JOINT LeftHandRing1
                {
                  OFFSET 12.147 0.0099 -2.2166
                  CHANNELS 6 Xposition Yposition Zposition Zrotation Xrotation Yrotation
                  JOINT LeftHandRing2
                  {
                    OFFSET 3.6012 0 0
                    CHANNELS 6 Xposition Yposition Zposition Zrotation Xrotation Yrotation
                    JOINT LeftHandRing3
                    {
                      OFFSET 3.3073 0 0
                      CHANNELS 6 Xposition Yposition Zposition Zrotation Xrotation Yrotation
                      End Site
                      {
                        OFFSET 3.6601 0 0
                      }
                    }
                  }
                }
                JOINT LeftHandPinky1
                {
                  OFFSET 10.9082 -0.2264 -4.7258
                  CHANNELS 6 Xposition Yposition Zposition Zrotation Xrotation Yrotation
                  JOINT LeftHandPinky2
                  {
                    OFFSET 4.1367 0 0
                    CHANNELS 6 Xposition Yposition Zposition Zrotation Xrotation Yrotation
                    JOINT LeftHandPinky3
                    {
                      OFFSET 2.5948 0 0
                      CHANNELS 6 Xposition Yposition Zposition Zrotation Xrotation Yrotation
                      End Site
                      {
                        OFFSET 2.9239 0 0
                      }
                    }
                  }
                }
              }
            }
          }
        }
        JOINT RightShoulder
        {
          OFFSET -6.1057 9.1105 0.7056
          CHANNELS 6 Xposition Yposition Zposition Zrotation Xrotation Yrotation
          JOINT RightArm
          {
            OFFSET -12.655 -0.266 -2.6009
            CHANNELS 6 Xposition Yposition Zposition Zrotation Xrotation Yrotation
            JOINT RightForeArm
            {
              OFFSET -27.4047 0 0
              CHANNELS 6 Xposition Yposition Zposition Zrotation Xrotation Yrotation
              JOINT RightHand
              {
                OFFSET -27.6145 0 0
                CHANNELS 6 Xposition Yposition Zposition Zrotation Xrotation Yrotation
                JOINT RightHandMiddle1
                {
                  OFFSET -12.7755 0 0
                  CHANNELS 6 Xposition Yposition Zposition Zrotation Xrotation Yrotation
                  JOINT RightHandMiddle2
                  {
                    OFFSET -3.614 0 0
                    CHANNELS 6 Xposition Yposition Zposition Zrotation Xrotation Yrotation
                    JOINT RightHandMiddle3
                    {
                      OFFSET -3.4598 0 0
                      CHANNELS 6 Xposition Yposition Zposition Zrotation Xrotation Yrotation
                      End Site
                      {
                        OFFSET -3.6802 0 0
                      }
                    }
                  }
                }
                JOINT RightHandThumb1
                {
                  OFFSET -3.7888 -2.167 3.0031
                  CHANNELS 6 Xposition Yposition Zposition Zrotation Xrotation Yrotation
                  JOINT RightHandThumb2
                  {
                    OFFSET -3.6754 -2.122 2.122
                    CHANNELS 6 Xposition Yposition Zposition Zrotation Xrotation Yrotation
                    JOINT RightHandThumb3
                    {
                      OFFSET -3.3944 -1.9597 1.9598
                      CHANNELS 6 Xposition Yposition Zposition Zrotation Xrotation Yrotation
                      End Site
                      {
                        OFFSET -2.6794 -1.5469 1.5469
                      }
                    }
                  }
                }
                JOINT RightHandIndex1
                {
                  OFFSET -12.2666 -0.2317 2.8221
                  CHANNELS 6 Xposition Yposition Zposition Zrotation Xrotation Yrotation
                  JOINT RightHandIndex2
                  {
                    OFFSET -3.892 0 0
                    CHANNELS 6 Xposition Yposition Zposition Zrotation Xrotation Yrotation
                    JOINT RightHandIndex3
                    {
                      OFFSET -3.4152 0 0
                      CHANNELS 6 Xposition Yposition Zposition Zrotation Xrotation Yrotation
                      End Site
                      {
                        OFFSET -3.078 0 0
                      }
                    }
                  }
                }
                JOINT RightHandRing1
                {
                  OFFSET -12.147 0.0099 -2.2166
                  CHANNELS 6 Xposition Yposition Zposition Zrotation Xrotation Yrotation
                  JOINT RightHandRing2
                  {
                    OFFSET -3.6012 0 0
                    CHANNELS 6 Xposition Yposition Zposition Zrotation Xrotation Yrotation
                    JOINT RightHandRing3
                    {
                      OFFSET -3.3073 0 0
                      CHANNELS 6 Xposition Yposition Zposition Zrotation Xrotation Yrotation
                      End Site
                      {
                        OFFSET -3.6601 0 0
                      }
                    }
                  }
                }
                JOINT RightHandPinky1
                {
                  OFFSET -10.9082 -0.2264 -4.7258
                  CHANNELS 6 Xposition Yposition Zposition Zrotation Xrotation Yrotation
                  JOINT RightHandPinky2
                  {
                    OFFSET -4.1367 0 0
                    CHANNELS 6 Xposition Yposition Zposition Zrotation Xrotation Yrotation
                    JOINT RightHandPinky3
                    {
                      OFFSET -2.5948 0 0
                      CHANNELS 6 Xposition Yposition Zposition Zrotation Xrotation Yrotation
                      End Site
                      {
                        OFFSET -2.9239 0 0
                      }
                    }
                  }
                }
              }
            }
          }
        }
      }
    }
  }
  JOINT RightUpLeg
  {
    OFFSET -9.1245 -6.6564 -0.0554
    CHANNELS 6 Xposition Yposition Zposition Zrotation Xrotation Yrotation
    JOINT RightLeg
    {
      OFFSET -0.2447 -40.5954 -0.5145
      CHANNELS 6 Xposition Yposition Zposition Zrotation Xrotation Yrotation
      JOINT RightFoot
      {
        OFFSET 0.2447 -42.0479 -2.0602
        CHANNELS 6 Xposition Yposition Zposition Zrotation Xrotation Yrotation
        JOINT RightToeBase
        {
          OFFSET -0.3734 -10.4922 12.6407
          CHANNELS 6 Xposition Yposition Zposition Zrotation Xrotation Yrotation
          End Site
          {
            OFFSET 0 0 9.9925
          }
        }
      }
    }
  }
  JOINT LeftUpLeg
  {
    OFFSET 9.1245 -6.6564 -0.0554
    CHANNELS 6 Xposition Yposition Zposition Zrotation Xrotation Yrotation
    JOINT LeftLeg
    {
      OFFSET 0.2447 -40.5954 -0.517
      CHANNELS 6 Xposition Yposition Zposition Zrotation Xrotation Yrotation
      JOINT LeftFoot
      {
        OFFSET -0.2447 -42.048 -2.0576
        CHANNELS 6 Xposition Yposition Zposition Zrotation Xrotation Yrotation
        JOINT LeftToeBase
        {
          OFFSET 0.3734 -10.4922 12.6407
          CHANNELS 6 Xposition Yposition Zposition Zrotation Xrotation Yrotation
          End Site
          {
            OFFSET 0 0 9.9925
          }
        }
      }
    }
  }
}
MOTION
Frames:	4
Frame Time:	0.0166667
29.1258 94.992 -29.9254 -11.8161 18.2065 14.0985 -7.10543e-015 9.9235 -1.2273 -8.8227 6.9155 2.6367 -0.0001 11.6454 -1.4223 -3.50483 5.29549 2.5844 0.0001 13.3602 -1.6265 -3.48595 5.2693 2.6486 -1.77636e-015 15.0325 0.7929 -4.93206 0.980118 12.6669 -7.10543e-015 10.3218 3.1424 -8.8129 -21.9579 62.2028 0.0002 18.4747 6.6364 -3.18055e-015 -6.16232e-015 -0 2.9479 7.6817 9.1207 -3.18055e-015 -6.16232e-015 -0 -2.9445 7.6817 9.1205 -3.18055e-015 -6.16232e-015 -0 6.1058 9.1104 0.7056 -18.6372 -0.343591 1.03476 12.655 -0.2659 -2.6009 -38.6351 29.2086 26.201 27.4047 -1.42109e-014 -2.84217e-014 7.5113e-005 -8.40755e-006 -105.992 27.6145 7.10543e-015 1.06581e-014 25.6013 20.1551 -23.2169 12.7755 -1.42109e-014 1.42109e-014 -8.29934 -0.339204 3.1929 3.614 7.10543e-015 1.42109e-014 -29.6294 -0.767833 2.90254 3.4598 0 3.55271e-015 -16.765 -0.249491 1.693 3.7888 -2.167 3.0031 -14.2912 -6.06037 9.12992 3.6754 -2.122 2.122 40.2334 16.9866 -3.47484 3.3944 -1.9597 1.9598 13.5984 6.24076 6.78728 12.2666 -0.2317 2.8221 5.29881 0.25671 1.80201 3.892 1.42109e-014 0 -29.2319 -0.747813 2.86706 3.4152 0 -1.06581e-014 -11.5943 -0.119753 1.17952 12.147 0.0099 -2.2166 -22.8114 -1.31747 4.47966 3.6012 -1.42109e-014 1.42109e-014 -29.1225 -0.742349 2.85724 3.3073 3.55271e-015 -7.10543e-015 -27.3405 -0.655929 2.69625 10.9082 -0.2264 -4.7258 -29.7029 -1.88909 4.99547 4.1367 3.55271e-015 -3.55271e-015 -30.6063 -0.81808 2.98921 2.5948 0 -3.55271e-015 -31.1724 -0.847903 3.03901 -6.1057 9.1105 0.7056 -8.12427 0.0514162 7.38662 -12.655 -0.266 -2.6009 24.0523 -3.55156 1.87367 -27.4047 0 0 5.8219e-006 1.32724e-006 54.2984 -27.6145 0 -7.10543e-015 21.2237 -31.8748 13.787 -12.7755 0 3.55271e-015 37.7102 -2.33644 -4.69259 -3.614 0 0 54.3076 -1.94501 -3.79105 -3.4598 -1.42109e-014 0 35.3223 -0.859121 -2.6979 -3.7888 -2.167 3.0031 13.5066 -5.15125 -11.2393 -3.6754 -2.122 2.122 -40.5027 18.3999 4.92819 -3.3944 -1.9597 1.9598 -10.2365 12.8552 -27.8001 -12.2666 -0.2317 2.8221 30.3104 -1.75071 -4.35206 -3.892 0 7.10543e-015 38.3307 -1.00606 -2.89411 -3.4152 7.10543e-015 0 10.617 -0.0798592 -0.859428 -12.147 0.0099 -2.2166 49.1814 -3.3176 -5.0642 -3.6012 3.55271e-015 1.77636e-015 44.0416 -1.31247 -3.24437 -3.3073 0 0 43.6849 -1.29233 -3.22342 -10.9082 -0.2264 -4.7258 56.0509 -3.93348 -5.19033 -4.1367 0 0 46.7155 -1.46762 -3.39754 -2.5948 0 0 54.9654 -1.98874 -3.82213 -9.1245 -6.6564 -0.0554 -18.6411 -34.9238 -21.9268 -0.2447 -40.5954 -0.5145 9.08724 31.9672 -13.8148 0.2447 -42.0479 -2.0602 17.9167 5.37054 -20.4837 -0.3734 -10.4922 12.6407 4.57004e-006 -18.424 -2.26086e-005 9.1245 -6.6564 -0.0554 19.8409 -44.3269 6.20021 0.2447 -40.5954 -0.517 13.9392 45.5795 0.0374554 -0.2447 -42.048 -2.0576 -10.5978 -3.56664 13.9523 0.3734 -10.4922 12.6407 -8.90325 -1.34986 0.301623 
30.5751 94.2462 -31.7153 -12.878 18.8436 14.377 7.10543e-015 9.9235 -1.2273 -9.1834 7.19756 1.79956 -0.0001 11.6454 -1.4223 -3.67442 5.49934 1.95324 0.0001 13.3602 -1.6265 -3.60015 5.4788 2.05327 -7.99361e-015 15.0325 0.7929 -4.44193 -0.0267256 12.8867 -1.77636e-015 10.3218 3.1424 -7.25294 -23.9517 63.576 0.0002 18.4747 6.6364 -1.59028e-015 -3.57812e-015 -3.18055e-015 2.9479 7.6817 9.1207 -1.59028e-015 -3.57812e-015 -3.18055e-015 -2.9445 7.6817 9.1205 -1.59028e-015 -3.57812e-015 -3.18055e-015 6.1058 9.1104 0.7056 -19.0467 -0.180287 0.516853 12.655 -0.2659 -2.6009 -39.3038 27.6948 21.0577 27.4047 7.10543e-015 0 -1.5931e-005 -4.47918e-006 -107.07 27.6145 3.55271e-015 0 26.2503 21.6715 -23.6695 12.7755 0 7.10543e-015 -5.76557 -0.203353 2.94495 3.614 0 -7.10543e-015 -27.6251 -0.669371 2.72215 3.4598 -3.55271e-015 0 -15.1083 -0.202887 1.52976 3.7888 -2.167 3.0031 -14.4312 -6.26982 8.64461 3.6754 -2.122 2.122 40.1914 16.9429 -3.75046 3.3944 -1.9597 1.9598 13.2488 5.58219 5.33721 12.2666 -0.2317 2.8221 7.17352 0.312377 1.60056 3.892 1.42109e-014 0 -26.6965 -0.625915 2.63743 3.4152 7.10543e-015 7.10543e-015 -9.93726 -0.0880665 1.01278 12.147 0.0099 -2.2166 -20.4617 -1.13736 4.28861 3.6012 0 -1.42109e-014 -27.4669 -0.661872 2.70777 3.3073 -7.10543e-015 0 -25.6848 -0.580145 2.54435 10.9082 -0.2264 -4.7258 -27.3727 -1.68888 4.82873 4.1367 7.10543e-015 1.42109e-014 -28.9509 -0.733802 2.84186 2.5948 7.10543e-015 -3.55271e-015 -28.4036 -0.706859 2.79262 -6.1057 9.1105 0.7056 -5.54349 0.299999 6.57802 -12.655 -0.266 -2.6009 26.4939 -2.90141 -0.801363 -27.4047 1.42109e-014 -1.42109e-014 -8.92524e-006 1.88261e-006 56.1944 -27.6145 0 -7.10543e-015 19.5395 -31.6595 13.4219 -12.7755 -1.42109e-014 3.55271e-015 34.4336 -2.07167 -4.55115 -3.614 0 0 51.028 -1.73239 -3.62881 -3.4598 0 0 32.0405 -0.710843 -2.47533 -3.7888 -2.167 3.0031 13.5066 -5.15126 -11.2393 -3.6754 -2.122 2.122 -40.5027 18.3999 4.92821 -3.3944 -1.9597 1.9598 -10.2365 12.8552 -27.8001 -12.2666 -0.2317 2.8221 23.8806 -1.28107 -3.99711 -3.892 0 0 35.0493 -0.846312 -2.67971 -3.4152 0 0 7.33241 -0.0381426 -0.595314 -12.147 0.0099 -2.2166 45.9041 -3.03002 -4.9782 -3.6012 0 0 40.7609 -1.13217 -3.04689 -3.3073 -7.10543e-015 8.88178e-016 40.4042 -1.11326 -3.02481 -10.9082 -0.2264 -4.7258 52.7722 -3.6377 -5.13937 -4.1367 0 0 43.4352 -1.27831 -3.20862 -2.5948 1.42109e-014 -1.77636e-015 51.6858 -1.7743 -3.66234 -9.1245 -6.6564 -0.0554 -19.6216 -36.4662 -22.6483 -0.2447 -40.5954 -0.5145 9.38682 31.8468 -14.3698 0.2447 -42.0479 -2.0602 18.1046 5.80789 -20.3525 -0.3734 -10.4922 12.6407 5.84861e-006 -16.836 1.45889e-006 9.1245 -6.6564 -0.0554 23.043 -43.8535 5.80473 0.2447 -40.5954 -0.517 13.5572 44.0414 0.620107 -0.2447 -42.048 -2.0576 -12.9764 -1.99081 11.7729 0.3734 -10.4922 12.6407 -11.1288 -4.91315 -0.176202 
32.3679 93.4936 -33.7492 -13.9859 19.4477 15.0617 3.55271e-015 9.9235 -1.2273 -9.50054 7.53146 1.15931 -0.0001 11.6454 -1.4223 -3.8618 5.72517 1.40474 0.0001 13.3602 -1.6265 -3.75213 5.70877 1.54167 1.77636e-015 15.0325 0.7929 -3.97006 -0.661914 13.0689 -3.55271e-015 10.3218 3.1424 -5.74332 -25.6376 65.0977 0.0002 18.4747 6.6364 -3.31043e-032 5.96354e-016 3.18055e-015 2.9479 7.6817 9.1207 -3.31043e-032 5.96354e-016 3.18055e-015 -2.9445 7.6817 9.1205 -3.31043e-032 5.96354e-016 3.18055e-015 6.1058 9.1104 0.7056 -19.322 -0.0184971 -0.34745 12.655 -0.2659 -2.6009 -39.6477 25.9603 14.7957 27.4047 3.55271e-015 0 4.43609e-005 -9.18642e-006 -107.519 27.6145 -3.55271e-015 -7.10543e-015 26.6279 23.9544 -23.7069 12.7755 -1.42109e-014 -7.10543e-015 -3.31649 -0.0825978 2.6999 3.614 -1.42109e-014 1.42109e-014 -25.688 -0.580262 2.54466 3.4598 7.10543e-015 7.10543e-015 -13.5072 -0.162361 1.37081 3.7888 -2.167 3.0031 -14.5681 -6.47112 8.17498 3.6754 -2.122 2.122 40.1506 16.9009 -4.0168 3.3944 -1.9597 1.9598 12.8956 4.95433 3.93354 12.2666 -0.2317 2.8221 8.98537 0.359897 1.40429 3.892 -1.42109e-014 -1.42109e-014 -24.2459 -0.51788 2.41062 3.4152 0 -1.42109e-014 -8.33582 -0.0620036 0.850809 12.147 0.0099 -2.2166 -18.1905 -0.970871 4.09718 3.6012 7.10543e-015 7.10543e-015 -25.8669 -0.588246 2.56115 3.3073 -3.55271e-015 -1.42109e-014 -24.0845 -0.511094 2.39555 10.9082 -0.2264 -4.7258 -25.1204 -1.50202 4.66005 4.1367 0 -7.10543e-015 -27.351 -0.656383 2.69719 2.5948 -3.55271e-015 0 -25.7275 -0.582054 2.54829 -6.1057 9.1105 0.7056 -3.25015 0.476285 5.75027 -12.655 -0.266 -2.6009 28.9896 -2.99721 -3.30719 -27.4047 -1.42109e-014 0 6.57072e-006 -2.62165e-005 57.042 -27.6145 0 0 18.2592 -30.4131 13.962 -12.7755 -1.42109e-014 0 31.5752 -1.84766 -4.41559 -3.614 0 0 48.1668 -1.55477 -3.47759 -3.4598 2.13163e-014 -8.88178e-016 29.1773 -0.592081 -2.27457 -3.7888 -2.167 3.0031 13.5065 -5.15126 -11.2393 -3.6754 -2.122 2.122 -40.5027 18.3999 4.92822 -3.3944 -1.9597 1.9598 -10.2365 12.8552 -27.8001 -12.2666 -0.2317 2.8221 18.27 -0.906063 -3.64625 -3.892 0 0 32.1865 -0.717172 -2.4854 -3.4152 -1.77636e-015 0 4.46699 -0.0141635 -0.36329 -12.147 0.0099 -2.2166 43.0456 -2.78353 -4.88989 -3.6012 0 0 37.8988 -0.984331 -2.86643 -3.3073 -7.10543e-015 1.77636e-015 37.542 -0.966543 -2.84341 -10.9082 -0.2264 -4.7258 49.9127 -3.38243 -5.08116 -4.1367 -1.77636e-015 0 40.5733 -1.1222 -3.03527 -2.5948 0 0 48.8247 -1.59493 -3.51314 -9.1245 -6.6564 -0.0554 -20.75 -37.6462 -23.3242 -0.2447 -40.5954 -0.5145 9.3664 30.9668 -14.7608 0.2447 -42.0479 -2.0602 18.6412 6.5153 -20.8463 -0.3734 -10.4922 12.6407 -1.37411 -15.2633 -0.350699 9.1245 -6.6564 -0.0554 25.2325 -44.0409 4.99569 0.2447 -40.5954 -0.517 13.7786 43.2952 1.76384 -0.2447 -42.048 -2.0576 -15.5609 -3.78862 3.6746 0.3734 -10.4922 12.6407 -11.5367 -7.82736 -0.760724 
34.1372 92.7384 -35.7263 -14.6038 19.6087 15.5775 0 9.9235 -1.2273 -9.78049 7.93106 0.598142 -0.0001 11.6454 -1.4223 -4.06356 5.98454 0.972399 0.0001 13.3602 -1.6265 -3.93812 5.97114 1.13322 1.77636e-015 15.0325 0.7929 -3.54432 -1.22962 13.1186 -3.55271e-015 10.3218 3.1424 -4.53559 -27.2821 65.8995 0.0002 18.4747 6.6364 -3.18055e-015 5.96354e-016 -0 2.9479 7.6817 9.1207 -3.18055e-015 5.96354e-016 -0 -2.9445 7.6817 9.1205 -3.18055e-015 5.96354e-016 -0 6.1058 9.1104 0.7056 -19.554 0.167158 -1.68957 12.655 -0.2659 -2.6009 -39.6477 24.2624 8.54161 27.4047 3.55271e-015 -1.42109e-014 8.88012e-005 -1.81194e-005 -107.27 27.6145 7.10543e-015 1.42109e-014 26.5883 25.6527 -23.6152 12.7755 -1.42109e-014 -1.42109e-014 -1.00911 0.0214757 2.46454 3.614 1.42109e-014 7.10543e-015 -23.8631 -0.501877 2.37479 3.4598 -7.10543e-015 7.10543e-015 -11.9989 -0.128243 1.2201 3.7888 -2.167 3.0031 -14.6987 -6.65972 7.73199 3.6754 -2.122 2.122 40.112 16.8614 -4.26769 3.3944 -1.9597 1.9598 12.5492 4.37096 2.60897 12.2666 -0.2317 2.8221 10.6922 0.398963 1.21812 3.892 0 -7.10543e-015 -21.9372 -0.425059 2.19296 3.4152 0 0 -6.82728 -0.041618 0.697656 12.147 0.0099 -2.2166 -16.0508 -0.821085 3.91097 3.6012 -7.10543e-015 7.10543e-015 -24.3596 -0.522647 2.42123 3.3073 0 -7.10543e-015 -22.5771 -0.449913 2.25364 10.9082 -0.2264 -4.7258 -22.9986 -1.33217 4.49456 4.1367 7.10543e-015 -7.10543e-015 -25.8438 -0.587201 2.55902 2.5948 -3.55271e-015 -7.10543e-015 -23.2063 -0.474991 2.31305 -6.1057 9.1105 0.7056 -1.16395 0.5923 4.90199 -12.655 -0.266 -2.6009 31.6931 -3.71125 -5.60961 -27.4047 0 -1.42109e-014 7.15336e-006 -4.24427e-007 56.2521 -27.6145 0 -7.10543e-015 17.3267 -28.8247 14.9066 -12.7755 0 -1.77636e-015 29.5533 -1.69337 -4.31304 -3.614 -7.10543e-015 0 46.1429 -1.43378 -3.36534 -3.4598 -1.42109e-014 8.88178e-016 27.1518 -0.514195 -2.12913 -3.7888 -2.167 3.0031 13.5066 -5.15124 -11.2393 -3.6754 -2.122 2.122 -40.5027 18.3999 4.92822 -3.3944 -1.9597 1.9598 -10.2365 12.8552 -27.8001 -12.2666 -0.2317 2.8221 14.3005 -0.662389 -3.37675 -3.892 -1.42109e-014 0 30.1613 -0.631758 -2.34424 -3.4152 -1.77636e-015 0 2.44021 -0.0042407 -0.198594 -12.147 0.0099 -2.2166 41.0238 -2.61196 -4.82003 -3.6012 0 -8.88178e-016 35.8741 -0.885298 -2.73445 -3.3073 0 -8.88178e-016 35.5173 -0.868332 -2.7108 -10.9082 -0.2264 -4.7258 47.8904 -3.20375 -5.03232 -4.1367 0 0 38.5488 -1.01713 -2.90805 -2.5948 0 2.66454e-015 46.8009 -1.47267 -3.4023 -9.1245 -6.6564 -0.0554 -22.0713 -38.1933 -24.0866 -0.2447 -40.5954 -0.5145 9.12219 30.034 -14.3047 0.2447 -42.0479 -2.0602 19.2556 6.99568 -21.9632 -0.3734 -10.4922 12.6407 -2.641 -13.5211 -0.5527 9.1245 -6.6564 -0.0554 26.6454 -43.6635 4.45827 0.2447 -40.5954 -0.517 13.4429 41.1648 -0.743905 -0.2447 -42.048 -2.0576 -22.0547 -5.80222 -0.401381 0.3734 -10.4922 12.6407 -5.22911 -10.5312 -0.634142 
